<?xml version="1.0" encoding="UTF-8"?>
<svg xmlns="http://www.w3.org/2000/svg" xmlns:xlink="http://www.w3.org/1999/xlink" viewBox="0 0 100 100" width="100px" height="100px">
<g id="surface132493215">
<path style=" stroke:none;fill-rule:nonzero;fill:rgb(1.176471%,60.784316%,89.803922%);fill-opacity:1;" d="M 5 100 C 2.238281 100 0 97.761719 0 95 L 0 5 C 0 2.238281 2.238281 0 5 0 L 95 0 C 97.761719 0 100 2.238281 100 5 L 100 95 C 100 97.761719 97.761719 100 95 100 Z M 5 100 "/>
<path style=" stroke:none;fill-rule:nonzero;fill:rgb(1.176471%,60.784316%,89.803922%);fill-opacity:1;" d="M 92.703125 2.269531 L 7.296875 2.269531 L 14.832031 87.679688 L 50 97.730469 L 85.167969 87.679688 Z M 92.703125 2.269531 "/>
<path style=" stroke:none;fill-rule:nonzero;fill:rgb(1.176471%,60.784316%,89.803922%);fill-opacity:1;" d="M 50 9.808594 L 50 89.941406 L 78.136719 81.902344 L 84.414062 9.808594 Z M 50 9.808594 "/>
<path style=" stroke:none;fill-rule:nonzero;fill:rgb(100%,100%,100%);fill-opacity:1;" d="M 72.859375 22.367188 L 50 22.367188 L 50 32.414062 L 62.308594 32.414062 L 61.554688 42.464844 L 50 42.464844 L 50 52.511719 L 61.054688 52.511719 L 60.300781 63.816406 L 50 67.332031 L 50 77.882812 L 69.84375 71.351562 L 71.605469 42.464844 Z M 72.859375 22.367188 "/>
<path style=" stroke:none;fill-rule:nonzero;fill:rgb(100%,100%,100%);fill-opacity:1;" d="M 50 22.367188 L 50 32.414062 L 27.644531 32.414062 L 26.890625 22.367188 Z M 38.445312 42.464844 L 38.945312 52.511719 L 50 52.511719 L 50 42.464844 Z M 39.449219 57.535156 L 29.402344 57.535156 L 30.15625 71.351562 L 50 77.882812 L 50 67.332031 L 39.699219 63.816406 Z M 39.449219 57.535156 "/>
</g>
</svg>
