<?xml version="1.0" encoding="UTF-8"?>
<svg xmlns="http://www.w3.org/2000/svg" xmlns:xlink="http://www.w3.org/1999/xlink" viewBox="0 0 100 100" width="100px" height="100px">
<g id="surface132407101">
<path style=" stroke:none;fill-rule:nonzero;fill:rgb(93.333334%,93.333334%,93.333334%);fill-opacity:1;" d="M 5 100 C 2.238281 100 0 97.761719 0 95 L 0 5 C 0 2.238281 2.238281 0 5 0 L 95 0 C 97.761719 0 100 2.238281 100 5 L 100 95 C 100 97.761719 97.761719 100 95 100 Z M 5 100 "/>
<path style=" stroke:none;fill-rule:nonzero;fill:rgb(12.941177%,12.941177%,12.941177%);fill-opacity:1;" d="M 50 18.75 C 32.8125 18.75 18.75 32.8125 18.75 50 C 18.75 67.1875 32.8125 81.25 50 81.25 C 67.1875 81.25 81.25 67.1875 81.25 50 C 81.25 32.8125 67.1875 18.75 50 18.75 Z M 50 18.75 "/>
<path style=" stroke:none;fill-rule:nonzero;fill:rgb(100%,100%,100%);fill-opacity:1;" d="M 28.515625 52.539062 C 28.496094 52.101562 29.296875 42.578125 43.945312 39.648438 C 43.945312 39.648438 60.660156 38.347656 62.359375 51.988281 L 64.648438 78.125 C 64.648438 78.125 46.09375 82.03125 44.921875 80.078125 C 43.75 78.125 46.09375 57.226562 46.09375 57.226562 C 46.09375 57.226562 28.90625 61.328125 28.515625 52.539062 Z M 28.515625 52.539062 "/>
<path style=" stroke:none;fill-rule:nonzero;fill:rgb(100%,100%,100%);fill-opacity:1;" d="M 45.902344 18.773438 L 46.679688 18.726562 L 47.414062 30.640625 L 46.636719 30.691406 Z M 45.902344 18.773438 "/>
<path style=" stroke:none;fill-rule:nonzero;fill:rgb(100%,100%,100%);fill-opacity:1;" d="M 49.03125 18.773438 L 49.808594 18.726562 L 53.703125 81.8125 L 52.925781 81.859375 Z M 49.03125 18.773438 "/>
<path style=" stroke:none;fill-rule:nonzero;fill:rgb(100%,100%,100%);fill-opacity:1;" d="M 40.460938 31.859375 L 41.242188 31.8125 L 41.46875 35.523438 L 40.691406 35.570312 Z M 40.460938 31.859375 "/>
<path style=" stroke:none;fill-rule:nonzero;fill:rgb(100%,100%,100%);fill-opacity:1;" d="M 43.296875 27.171875 L 44.074219 27.125 L 44.558594 34.9375 L 43.777344 34.984375 Z M 43.296875 27.171875 "/>
<path style=" stroke:none;fill-rule:nonzero;fill:rgb(100%,100%,100%);fill-opacity:1;" d="M 36.300781 65.648438 L 37.082031 65.601562 L 37.480469 72.046875 L 36.699219 72.09375 Z M 36.300781 65.648438 "/>
<path style=" stroke:none;fill-rule:nonzero;fill:rgb(100%,100%,100%);fill-opacity:1;" d="M 36.6875 21.3125 L 37.464844 21.265625 L 40.15625 64.820312 L 39.375 64.867188 Z M 36.6875 21.3125 "/>
<path style=" stroke:none;fill-rule:nonzero;fill:rgb(100%,100%,100%);fill-opacity:1;" d="M 30.183594 67.796875 L 30.964844 67.75 L 31.375 74.390625 L 30.59375 74.4375 Z M 30.183594 67.796875 "/>
<path style=" stroke:none;fill-rule:nonzero;fill:rgb(100%,100%,100%);fill-opacity:1;" d="M 29.3125 53.734375 L 30.09375 53.6875 L 30.671875 63.0625 L 29.894531 63.109375 Z M 29.3125 53.734375 "/>
<path style=" stroke:none;fill-rule:nonzero;fill:rgb(100%,100%,100%);fill-opacity:1;" d="M 27.679688 27.367188 L 28.460938 27.320312 L 29.113281 37.867188 L 28.332031 37.914062 Z M 27.679688 27.367188 "/>
<path style=" stroke:none;fill-rule:nonzero;fill:rgb(100%,100%,100%);fill-opacity:1;" d="M 31.339844 35.960938 L 32.121094 35.914062 L 32.917969 48.804688 L 32.136719 48.851562 Z M 31.339844 35.960938 "/>
<path style=" stroke:none;fill-rule:nonzero;fill:rgb(100%,100%,100%);fill-opacity:1;" d="M 23.054688 53.539062 L 23.835938 53.492188 L 24.75 68.335938 L 23.972656 68.382812 Z M 23.054688 53.539062 "/>
<path style=" stroke:none;fill-rule:nonzero;fill:rgb(100%,100%,100%);fill-opacity:1;" d="M 21.90625 34.984375 L 22.683594 34.9375 L 23.503906 48.21875 L 22.726562 48.265625 Z M 21.90625 34.984375 "/>
<path style=" stroke:none;fill-rule:nonzero;fill:rgb(100%,100%,100%);fill-opacity:1;" d="M 26.683594 61.742188 L 27.464844 61.695312 L 28.054688 71.265625 L 27.273438 71.316406 Z M 26.683594 61.742188 "/>
<path style=" stroke:none;fill-rule:nonzero;fill:rgb(100%,100%,100%);fill-opacity:1;" d="M 24.738281 30.296875 L 25.519531 30.25 L 27.171875 57.007812 L 26.390625 57.058594 Z M 24.738281 30.296875 "/>
<path style=" stroke:none;fill-rule:nonzero;fill:rgb(100%,100%,100%);fill-opacity:1;" d="M 52.730469 28.148438 L 53.511719 28.101562 L 54.015625 36.304688 L 53.238281 36.351562 Z M 52.730469 28.148438 "/>
<path style=" stroke:none;fill-rule:nonzero;fill:rgb(100%,100%,100%);fill-opacity:1;" d="M 55.277344 18.773438 L 56.054688 18.726562 L 56.925781 32.789062 L 56.144531 32.835938 Z M 55.277344 18.773438 "/>
<path style=" stroke:none;fill-rule:nonzero;fill:rgb(100%,100%,100%);fill-opacity:1;" d="M 59.007812 28.539062 L 59.789062 28.492188 L 62.851562 78.101562 L 62.070312 78.152344 Z M 59.007812 28.539062 "/>
<path style=" stroke:none;fill-rule:nonzero;fill:rgb(100%,100%,100%);fill-opacity:1;" d="M 61.648438 20.726562 L 62.425781 20.679688 L 63.222656 33.570312 L 62.441406 33.617188 Z M 61.648438 20.726562 "/>
<path style=" stroke:none;fill-rule:nonzero;fill:rgb(100%,100%,100%);fill-opacity:1;" d="M 64.929688 23.265625 L 65.710938 23.21875 L 67.011719 44.3125 L 66.230469 44.359375 Z M 64.929688 23.265625 "/>
<path style=" stroke:none;fill-rule:nonzero;fill:rgb(100%,100%,100%);fill-opacity:1;" d="M 68.140625 24.632812 L 68.917969 24.585938 L 70.691406 53.296875 L 69.914062 53.34375 Z M 68.140625 24.632812 "/>
<path style=" stroke:none;fill-rule:nonzero;fill:rgb(100%,100%,100%);fill-opacity:1;" d="M 73.285156 57.25 L 74.0625 57.199219 L 74.835938 69.699219 L 74.054688 69.75 Z M 73.285156 57.25 "/>
<path style=" stroke:none;fill-rule:nonzero;fill:rgb(100%,100%,100%);fill-opacity:1;" d="M 72.050781 37.328125 L 72.832031 37.28125 L 73.542969 48.804688 L 72.761719 48.851562 Z M 72.050781 37.328125 "/>
<path style=" stroke:none;fill-rule:nonzero;fill:rgb(100%,100%,100%);fill-opacity:1;" d="M 74.863281 32.25 L 75.644531 32.203125 L 77.730469 65.992188 L 76.949219 66.039062 Z M 74.863281 32.25 "/>
<path style=" stroke:none;fill-rule:nonzero;fill:rgb(12.941177%,12.941177%,12.941177%);fill-opacity:1;" d="M 41.664062 46.65625 C 41.664062 47.296875 41.144531 47.8125 40.503906 47.8125 C 39.863281 47.8125 39.34375 47.296875 39.34375 46.65625 C 39.34375 46.015625 39.863281 45.496094 40.503906 45.496094 C 41.144531 45.496094 41.664062 46.015625 41.664062 46.65625 Z M 41.664062 46.65625 "/>
<path style=" stroke:none;fill-rule:nonzero;fill:rgb(12.941177%,12.941177%,12.941177%);fill-opacity:1;" d="M 36.015625 45.90625 C 36.015625 46.464844 35.5625 46.914062 35.007812 46.914062 C 34.449219 46.914062 33.996094 46.464844 33.996094 45.90625 C 33.996094 45.347656 34.449219 44.898438 35.007812 44.898438 C 35.5625 44.898438 36.015625 45.347656 36.015625 45.90625 Z M 36.015625 45.90625 "/>
<path style=" stroke:none;fill-rule:nonzero;fill:rgb(12.941177%,12.941177%,12.941177%);fill-opacity:1;" d="M 50 17.1875 C 31.90625 17.1875 17.1875 31.90625 17.1875 50 C 17.1875 68.09375 31.90625 82.8125 50 82.8125 C 68.09375 82.8125 82.8125 68.09375 82.8125 50 C 82.8125 31.90625 68.09375 17.1875 50 17.1875 Z M 46.914062 79.523438 C 48.132812 71.714844 47.34375 62.1875 47 58.847656 C 48.996094 58.300781 50.382812 57.777344 50.570312 57.703125 C 51.371094 57.390625 51.769531 56.484375 51.457031 55.679688 C 51.140625 54.875 50.238281 54.476562 49.433594 54.792969 C 45.566406 56.304688 34.722656 59.175781 31.046875 54.414062 C 29.921875 52.960938 29.710938 51.347656 30.414062 49.617188 C 32.015625 45.679688 37.71875 42.0625 43.679688 41.210938 C 52.203125 39.992188 59.769531 46.03125 60.820312 52.246094 C 61.742188 57.679688 63.15625 72.566406 63.511719 76.402344 C 59.453125 78.488281 54.867188 79.6875 50 79.6875 C 48.957031 79.6875 47.929688 79.632812 46.914062 79.523438 Z M 66.488281 74.671875 C 65.988281 69.394531 64.757812 56.789062 63.902344 51.726562 C 62.605469 44.078125 53.816406 36.601562 43.238281 38.117188 C 36.148438 39.128906 29.535156 43.472656 27.515625 48.441406 C 26.398438 51.195312 26.773438 53.996094 28.570312 56.324219 C 32.015625 60.785156 38.789062 60.550781 43.925781 59.558594 C 44.269531 63.078125 44.933594 71.949219 43.828125 79.03125 C 30.414062 76.183594 20.3125 64.253906 20.3125 50 C 20.3125 33.628906 33.628906 20.3125 50 20.3125 C 66.371094 20.3125 79.6875 33.628906 79.6875 50 C 79.6875 60.273438 74.441406 69.339844 66.488281 74.671875 Z M 66.488281 74.671875 "/>
</g>
</svg>
