<?xml version="1.0" encoding="UTF-8"?>
<svg xmlns="http://www.w3.org/2000/svg" xmlns:xlink="http://www.w3.org/1999/xlink" viewBox="0 0 100 100" width="100px" height="100px">
<g id="surface132677708">
<path style=" stroke:none;fill-rule:nonzero;fill:rgb(100%,42.745098%,0%);fill-opacity:1;" d="M 5 100 C 2.238281 100 0 97.761719 0 95 L 0 5 C 0 2.238281 2.238281 0 5 0 L 95 0 C 97.761719 0 100 2.238281 100 5 L 100 95 C 100 97.761719 97.761719 100 95 100 Z M 5 100 "/>
<path style=" stroke:none;fill-rule:nonzero;fill:rgb(100%,100%,100%);fill-opacity:1;" d="M 80.410156 15.988281 C 80.128906 15.675781 79.726562 15.5 79.300781 15.5 L 20.699219 15.5 C 20.273438 15.5 19.871094 15.675781 19.589844 15.988281 C 19.304688 16.296875 19.164062 16.714844 19.203125 17.136719 L 24.484375 76.273438 C 24.535156 76.894531 24.96875 77.410156 25.566406 77.585938 L 49.585938 84.441406 C 49.714844 84.480469 49.855469 84.5 49.996094 84.5 C 50.136719 84.5 50.269531 84.480469 50.40625 84.441406 L 74.441406 77.585938 C 75.039062 77.410156 75.464844 76.894531 75.523438 76.273438 L 80.796875 17.136719 C 80.839844 16.714844 80.699219 16.296875 80.410156 15.988281 Z M 67.769531 36.378906 L 39.550781 36.378906 L 40.226562 44.011719 L 67.089844 44.011719 L 65.074219 66.578125 L 49.988281 71.136719 L 49.839844 71.089844 L 34.929688 66.570312 L 34.113281 57.378906 L 41.421875 57.378906 L 41.738281 60.945312 L 50.074219 62.691406 L 58.261719 60.945312 L 59.132812 51.289062 L 33.570312 51.289062 L 31.582031 29.082031 L 68.421875 29.082031 Z M 67.769531 36.378906 "/>
</g>
</svg>
