<?xml version="1.0" encoding="UTF-8"?>
<svg xmlns="http://www.w3.org/2000/svg" xmlns:xlink="http://www.w3.org/1999/xlink" viewBox="0 0 100 100" width="100px" height="100px">
<g id="surface132495413">
<path style=" stroke:none;fill-rule:nonzero;fill:rgb(100%,83.92157%,0%);fill-opacity:1;" d="M 5 100 C 2.238281 100 0 97.761719 0 95 L 0 5 C 0 2.238281 2.238281 0 5 0 L 95 0 C 97.761719 0 100 2.238281 100 5 L 100 95 C 100 97.761719 97.761719 100 95 100 Z M 5 100 "/>
<path style=" stroke:none;fill-rule:nonzero;fill:rgb(100%,83.92157%,0%);fill-opacity:1;" d="M 3.875 96.125 L 3.875 3.875 L 96.125 3.875 L 96.125 96.125 Z M 3.875 96.125 "/>
<path style=" stroke:none;fill-rule:nonzero;fill:rgb(0%,0%,0.392157%);fill-opacity:1;" d="M 64.191406 72.925781 C 65.964844 75.808594 67.890625 78.566406 71.972656 78.566406 C 75.402344 78.566406 77.199219 76.863281 77.199219 74.503906 C 77.199219 71.683594 75.339844 70.683594 71.570312 69.039062 L 69.5 68.15625 C 63.53125 65.625 59.5625 62.453125 59.5625 55.753906 C 59.5625 49.578125 64.292969 44.878906 71.679688 44.878906 C 76.941406 44.878906 80.71875 46.699219 83.445312 51.472656 L 77.003906 55.589844 C 75.585938 53.058594 74.054688 52.058594 71.679688 52.058594 C 69.253906 52.058594 67.71875 53.589844 67.71875 55.589844 C 67.71875 58.058594 69.257812 59.058594 72.804688 60.589844 L 74.875 61.46875 C 81.910156 64.464844 85.875 67.523438 85.875 74.402344 C 85.875 81.8125 80.023438 85.875 72.164062 85.875 C 64.480469 85.875 60.117188 82.019531 57.6875 77.246094 Z M 34.503906 73.136719 C 35.796875 75.457031 37.769531 77.246094 40.601562 77.246094 C 43.3125 77.246094 44.875 76.171875 44.875 72.007812 L 44.875 44.875 L 53.414062 44.875 L 53.414062 73.320312 C 53.414062 81.949219 48.410156 85.875 41.101562 85.875 C 34.5 85.875 29.734375 81.402344 27.789062 77.246094 Z M 34.503906 73.136719 "/>
</g>
</svg>
