<?xml version="1.0" encoding="UTF-8"?>
<svg xmlns="http://www.w3.org/2000/svg" xmlns:xlink="http://www.w3.org/1999/xlink" viewBox="0 0 100 100" width="100px" height="100px">
<g id="surface132721497">
<path style=" stroke:none;fill-rule:nonzero;fill:rgb(0.784314%,53.333336%,81.960785%);fill-opacity:1;" d="M 5 100 C 2.238281 100 0 97.761719 0 95 L 0 5 C 0 2.238281 2.238281 0 5 0 L 95 0 C 97.761719 0 100 2.238281 100 5 L 100 95 C 100 97.761719 97.761719 100 95 100 Z M 5 100 "/>
<path style=" stroke:none;fill-rule:nonzero;fill:rgb(0.784314%,53.333336%,81.960785%);fill-opacity:1;" d="M 86.375 76.269531 C 86.375 81.851562 81.851562 86.375 76.269531 86.375 L 23.730469 86.375 C 18.148438 86.375 13.625 81.851562 13.625 76.269531 L 13.625 23.730469 C 13.625 18.148438 18.148438 13.625 23.730469 13.625 L 76.269531 13.625 C 81.851562 13.625 86.375 18.148438 86.375 23.730469 Z M 86.375 76.269531 "/>
<path style=" stroke:none;fill-rule:nonzero;fill:rgb(100%,100%,100%);fill-opacity:1;" d="M 25.75 39.894531 L 35.855469 39.894531 L 35.855469 74.25 L 25.75 74.25 Z M 30.773438 35.855469 L 30.714844 35.855469 C 27.699219 35.855469 25.75 33.605469 25.75 30.800781 C 25.75 27.933594 27.761719 25.75 30.832031 25.75 C 33.902344 25.75 35.796875 27.933594 35.855469 30.800781 C 35.855469 33.605469 33.902344 35.855469 30.773438 35.855469 Z M 74.25 74.25 L 64.144531 74.25 L 64.144531 55.863281 C 64.144531 51.421875 61.671875 48.390625 57.695312 48.390625 C 54.660156 48.390625 53.019531 50.433594 52.226562 52.410156 C 51.933594 53.117188 52.019531 55.074219 52.019531 56.0625 L 52.019531 74.25 L 41.917969 74.25 L 41.917969 39.894531 L 52.019531 39.894531 L 52.019531 45.183594 C 53.476562 42.925781 55.757812 39.894531 61.59375 39.894531 C 68.824219 39.894531 74.246094 44.441406 74.246094 54.59375 Z M 74.25 74.25 "/>
</g>
</svg>
