<?xml version="1.0" encoding="UTF-8"?>
<svg xmlns="http://www.w3.org/2000/svg" xmlns:xlink="http://www.w3.org/1999/xlink" viewBox="0 0 100 100" width="100px" height="100px">
<g id="surface132424865">
<path style=" stroke:none;fill-rule:nonzero;fill:rgb(93.333334%,93.333334%,93.333334%);fill-opacity:1;" d="M 5 100 C 2.238281 100 0 97.761719 0 95 L 0 5 C 0 2.238281 2.238281 0 5 0 L 95 0 C 97.761719 0 100 2.238281 100 5 L 100 95 C 100 97.761719 97.761719 100 95 100 Z M 5 100 "/>
<path style=" stroke:none;fill-rule:nonzero;fill:rgb(21.960784%,55.686277%,23.529412%);fill-opacity:1;" d="M 37.625 40.46875 L 28.691406 45.410156 C 28.355469 45.59375 28.148438 45.9375 28.148438 46.308594 L 28.148438 56.199219 C 28.148438 56.570312 28.355469 56.910156 28.691406 57.09375 L 37.628906 62.042969 C 37.960938 62.226562 38.375 62.226562 38.707031 62.042969 L 47.640625 57.09375 C 47.972656 56.910156 48.179688 56.570312 48.179688 56.199219 L 48.179688 46.308594 C 48.179688 45.9375 47.972656 45.597656 47.636719 45.410156 L 38.707031 40.46875 C 38.539062 40.375 38.351562 40.328125 38.164062 40.328125 C 37.976562 40.328125 37.792969 40.375 37.625 40.46875 M 83.597656 49.375 L 82.105469 50.195312 C 82.050781 50.226562 82.015625 50.285156 82.015625 50.347656 L 82.015625 51.996094 C 82.015625 52.058594 82.050781 52.113281 82.105469 52.144531 L 83.597656 52.96875 C 83.652344 53 83.71875 53 83.777344 52.96875 L 85.265625 52.144531 C 85.320312 52.113281 85.355469 52.058594 85.355469 51.996094 L 85.355469 50.347656 C 85.355469 50.285156 85.320312 50.226562 85.265625 50.195312 L 83.773438 49.375 C 83.746094 49.355469 83.714844 49.351562 83.683594 49.351562 C 83.652344 49.351562 83.625 49.355469 83.597656 49.375 "/>
<path style=" stroke:none;fill-rule:nonzero;fill:rgb(21.568628%,27.843139%,30.980393%);fill-opacity:1;" d="M 71.394531 29.984375 L 67.046875 27.554688 C 66.910156 27.480469 66.742188 27.480469 66.609375 27.5625 C 66.472656 27.640625 66.390625 27.785156 66.390625 27.941406 L 66.386719 42.605469 L 62.375 40.382812 C 62.207031 40.292969 62.019531 40.246094 61.835938 40.246094 C 61.648438 40.246094 61.460938 40.292969 61.292969 40.382812 L 61.296875 40.382812 L 52.363281 45.328125 C 52.027344 45.511719 51.820312 45.855469 51.820312 46.222656 L 51.820312 56.113281 C 51.820312 56.484375 52.027344 56.824219 52.363281 57.011719 L 61.296875 61.957031 C 61.632812 62.140625 62.042969 62.140625 62.378906 61.957031 L 71.3125 57.011719 C 71.644531 56.824219 71.851562 56.484375 71.851562 56.113281 L 71.851562 30.753906 C 71.851562 30.433594 71.675781 30.140625 71.394531 29.984375 Z M 66.144531 53.824219 L 62.082031 56.074219 C 61.933594 56.15625 61.746094 56.15625 61.59375 56.074219 L 57.53125 53.824219 C 57.375 53.742188 57.285156 53.585938 57.285156 53.417969 L 57.285156 48.921875 C 57.285156 48.753906 57.375 48.597656 57.527344 48.511719 L 61.589844 46.265625 C 61.664062 46.222656 61.75 46.203125 61.835938 46.203125 C 61.921875 46.203125 62.003906 46.226562 62.082031 46.265625 L 66.140625 48.511719 C 66.292969 48.597656 66.386719 48.753906 66.386719 48.921875 L 66.386719 53.417969 C 66.386719 53.585938 66.292969 53.742188 66.144531 53.824219 Z M 66.144531 53.824219 "/>
<path style=" stroke:none;fill-rule:nonzero;fill:rgb(18.039216%,49.019608%,19.607843%);fill-opacity:1;" d="M 37.625 40.46875 L 28.148438 56.199219 C 28.148438 56.570312 28.355469 56.910156 28.691406 57.09375 L 37.628906 62.042969 C 37.960938 62.226562 38.375 62.226562 38.707031 62.042969 L 48.179688 46.308594 C 48.179688 45.9375 47.972656 45.597656 47.636719 45.410156 L 38.707031 40.46875 C 38.539062 40.375 38.351562 40.328125 38.164062 40.328125 C 37.976562 40.328125 37.792969 40.375 37.625 40.46875 "/>
<path style=" stroke:none;fill-rule:nonzero;fill:rgb(29.803923%,68.627453%,31.37255%);fill-opacity:1;" d="M 37.625 40.46875 L 28.691406 45.410156 C 28.355469 45.59375 28.148438 45.9375 28.148438 46.308594 L 37.625 62.042969 C 37.957031 62.226562 38.371094 62.226562 38.707031 62.042969 L 47.640625 57.09375 C 47.972656 56.910156 48.179688 56.570312 48.179688 56.199219 L 38.707031 40.46875 C 38.539062 40.375 38.351562 40.328125 38.164062 40.328125 C 37.976562 40.328125 37.792969 40.375 37.625 40.46875 "/>
<path style=" stroke:none;fill-rule:nonzero;fill:rgb(21.568628%,27.843139%,30.980393%);fill-opacity:1;" d="M 93.160156 45.328125 L 84.226562 40.382812 C 84.058594 40.292969 83.871094 40.246094 83.683594 40.246094 C 83.5 40.246094 83.3125 40.292969 83.144531 40.382812 L 74.210938 45.328125 C 73.878906 45.511719 73.671875 45.859375 73.671875 46.242188 L 73.671875 56.097656 C 73.671875 56.476562 73.878906 56.828125 74.210938 57.011719 L 83.148438 61.960938 C 83.484375 62.144531 83.894531 62.144531 84.226562 61.960938 L 88.347656 59.675781 C 88.726562 59.46875 88.722656 58.925781 88.34375 58.71875 L 79.378906 53.828125 C 79.226562 53.742188 79.132812 53.582031 79.132812 53.414062 L 79.132812 48.921875 C 79.132812 48.753906 79.222656 48.601562 79.371094 48.519531 L 83.4375 46.269531 C 83.515625 46.226562 83.597656 46.207031 83.683594 46.207031 C 83.769531 46.207031 83.851562 46.230469 83.929688 46.269531 L 88 48.519531 C 88.144531 48.601562 88.234375 48.757812 88.234375 48.921875 L 88.234375 52.585938 C 88.234375 52.742188 88.320312 52.890625 88.457031 52.96875 C 88.59375 53.042969 88.757812 53.042969 88.894531 52.964844 L 93.261719 50.429688 C 93.53125 50.273438 93.699219 49.984375 93.699219 49.671875 L 93.699219 46.246094 C 93.699219 45.863281 93.492188 45.511719 93.160156 45.328125 Z M 25.789062 45.328125 L 16.855469 40.382812 C 16.6875 40.292969 16.5 40.246094 16.316406 40.246094 C 16.128906 40.246094 15.941406 40.292969 15.773438 40.382812 L 15.777344 40.382812 L 6.839844 45.328125 C 6.507812 45.511719 6.300781 45.859375 6.300781 46.242188 L 6.300781 59.835938 C 6.300781 59.992188 6.382812 60.136719 6.519531 60.214844 C 6.65625 60.292969 6.824219 60.292969 6.960938 60.214844 L 11.328125 57.679688 C 11.597656 57.523438 11.761719 57.230469 11.761719 56.917969 L 11.761719 48.921875 C 11.761719 48.753906 11.855469 48.597656 12 48.519531 L 16.070312 46.265625 C 16.144531 46.226562 16.230469 46.207031 16.316406 46.207031 C 16.402344 46.207031 16.484375 46.226562 16.5625 46.265625 L 20.628906 48.519531 C 20.777344 48.601562 20.867188 48.753906 20.867188 48.921875 L 20.867188 56.921875 C 20.867188 57.234375 21.03125 57.523438 21.304688 57.679688 L 25.671875 60.214844 C 25.808594 60.292969 25.972656 60.292969 26.109375 60.21875 C 26.246094 60.136719 26.328125 59.992188 26.328125 59.835938 L 26.328125 46.246094 C 26.328125 45.863281 26.121094 45.511719 25.789062 45.328125 Z M 25.789062 45.328125 "/>
</g>
</svg>
