<?xml version="1.0" encoding="UTF-8"?>
<svg xmlns="http://www.w3.org/2000/svg" xmlns:xlink="http://www.w3.org/1999/xlink" viewBox="0 0 100 100" width="100px" height="100px">
<g id="surface132697691">
<path style=" stroke:none;fill-rule:nonzero;fill:rgb(93.333334%,93.333334%,93.333334%);fill-opacity:1;" d="M 5 100 C 2.238281 100 0 97.761719 0 95 L 0 5 C 0 2.238281 2.238281 0 5 0 L 95 0 C 97.761719 0 100 2.238281 100 5 L 100 95 C 100 97.761719 97.761719 100 95 100 Z M 5 100 "/>
<path style=" stroke:none;fill-rule:nonzero;fill:rgb(0.784314%,46.666667%,74.117649%);fill-opacity:1;" d="M 50.046875 12.394531 C 46.96875 12.40625 44.835938 12.675781 42.257812 13.121094 C 34.640625 14.449219 33.253906 17.234375 33.253906 22.363281 L 33.253906 30.207031 L 51.066406 30.207031 L 51.066406 34.167969 L 23.96875 34.167969 C 18.75 34.167969 14.183594 36.625 12.738281 42.515625 C 11.101562 49.28125 11.03125 53.515625 12.738281 60.578125 C 14.035156 65.84375 16.890625 69.792969 22.109375 69.792969 L 29.296875 69.792969 L 29.296875 59.691406 C 29.296875 53.820312 34.613281 48.019531 40.707031 48.019531 L 55.027344 48.019531 C 60.019531 48.019531 64.921875 44.335938 64.921875 39.359375 L 64.921875 22.363281 C 64.921875 17.539062 61.441406 13.929688 56.574219 13.117188 C 56.695312 13.105469 53.097656 12.382812 50.046875 12.394531 Z M 40.183594 20.3125 C 41.808594 20.3125 43.152344 21.652344 43.152344 23.285156 C 43.152344 24.933594 41.808594 26.25 40.183594 26.25 C 38.527344 26.25 37.214844 24.9375 37.214844 23.285156 C 37.214844 21.660156 38.527344 20.3125 40.183594 20.3125 Z M 40.183594 20.3125 "/>
<path style=" stroke:none;fill-rule:nonzero;fill:rgb(100%,75.686276%,2.745098%);fill-opacity:1;" d="M 48.128906 87.605469 C 51.207031 87.59375 53.339844 87.324219 55.917969 86.878906 C 63.535156 85.550781 64.921875 82.765625 64.921875 77.636719 L 64.921875 69.792969 L 47.109375 69.792969 L 47.109375 65.832031 L 74.210938 65.832031 C 79.429688 65.832031 83.992188 63.375 85.441406 57.484375 C 87.074219 50.71875 87.148438 46.484375 85.441406 39.421875 C 84.140625 34.15625 81.285156 30.207031 76.066406 30.207031 L 68.878906 30.207031 L 68.878906 40.308594 C 68.878906 46.179688 63.5625 51.980469 57.472656 51.980469 L 43.148438 51.980469 C 38.15625 51.980469 33.253906 55.664062 33.253906 60.640625 L 33.253906 77.636719 C 33.253906 82.460938 36.734375 86.070312 41.601562 86.882812 C 41.480469 86.894531 45.078125 87.617188 48.128906 87.605469 Z M 57.996094 79.6875 C 56.371094 79.6875 55.027344 78.347656 55.027344 76.714844 C 55.027344 75.066406 56.371094 73.75 57.996094 73.75 C 59.652344 73.75 60.964844 75.0625 60.964844 76.714844 C 60.964844 78.339844 59.652344 79.6875 57.996094 79.6875 Z M 57.996094 79.6875 "/>
</g>
</svg>
