<?xml version="1.0" encoding="UTF-8"?>
<svg xmlns="http://www.w3.org/2000/svg" xmlns:xlink="http://www.w3.org/1999/xlink" viewBox="0 0 100 100" width="100px" height="100px">
<g id="surface132543480">
<path style=" stroke:none;fill-rule:nonzero;fill:rgb(93.333334%,93.333334%,93.333334%);fill-opacity:1;" d="M 5 100 C 2.238281 100 0 97.761719 0 95 L 0 5 C 0 2.238281 2.238281 0 5 0 L 95 0 C 97.761719 0 100 2.238281 100 5 L 100 95 C 100 97.761719 97.761719 100 95 100 Z M 5 100 "/>
<path style=" stroke:none;fill-rule:nonzero;fill:rgb(30.588236%,47.843137%,70.980394%);fill-opacity:1;" d="M 50 67.304688 C 27.828125 67.304688 11.109375 60.054688 11.109375 50 C 11.109375 39.945312 27.828125 32.5 50 32.5 C 72.171875 32.5 88.890625 39.945312 88.890625 50 C 88.890625 60.054688 72.171875 67.304688 50 67.304688 Z M 50 38.199219 C 31.082031 38.199219 16.703125 44.550781 16.703125 50.121094 C 16.703125 55.691406 31.082031 61.800781 50 61.800781 C 68.917969 61.800781 83.296875 55.449219 83.296875 49.878906 C 83.296875 44.308594 68.917969 38.199219 50 38.199219 Z M 50 38.199219 "/>
<path style=" stroke:none;fill-rule:nonzero;fill:rgb(30.588236%,47.843137%,70.980394%);fill-opacity:1;" d="M 35.226562 85 C 35.222656 85 35.226562 85 35.226562 85 C 33.414062 85 31.761719 84.578125 30.3125 83.75 C 27.9375 82.394531 26.238281 80.003906 25.386719 76.824219 C 23.160156 68.5 26.753906 54.5 34.550781 41.15625 C 43.699219 25.511719 55.847656 15.003906 64.777344 15.003906 C 66.585938 15.003906 68.238281 15.425781 69.6875 16.253906 C 72.058594 17.605469 73.761719 19.996094 74.609375 23.171875 C 76.839844 31.5 73.242188 45.5 65.441406 58.84375 C 56.300781 74.488281 44.15625 85 35.226562 85 Z M 64.777344 20.839844 C 59.160156 20.839844 48.425781 28.992188 39.585938 44.101562 C 31.570312 57.820312 29.21875 69.203125 31.023438 75.316406 C 31.511719 76.96875 32.199219 78.113281 33.203125 78.683594 C 37.792969 81.304688 50.332031 73.144531 60.410156 55.902344 C 68.429688 42.179688 71.023438 31.042969 68.976562 24.683594 C 68.449219 23.046875 67.800781 21.894531 66.800781 21.324219 C 66.230469 20.996094 65.566406 20.839844 64.777344 20.839844 Z M 64.777344 20.839844 "/>
<path style=" stroke:none;fill-rule:nonzero;fill:rgb(30.588236%,47.843137%,70.980394%);fill-opacity:1;" d="M 64.777344 84.996094 C 55.835938 84.992188 43.691406 74.484375 34.550781 58.84375 C 26.753906 45.5 23.160156 31.5 25.386719 23.175781 C 26.238281 19.996094 27.9375 17.605469 30.308594 16.25 C 31.761719 15.421875 33.414062 15 35.222656 15 C 44.15625 15 56.300781 25.511719 65.441406 41.15625 C 73.242188 54.496094 76.835938 68.5 74.609375 76.828125 C 73.757812 80.003906 72.054688 82.394531 69.6875 83.746094 C 68.238281 84.574219 66.582031 84.996094 64.777344 84.996094 Z M 35.222656 20.832031 C 34.429688 20.832031 33.769531 20.992188 33.199219 21.316406 C 32.199219 21.886719 31.5 23.027344 31.023438 24.683594 C 29.21875 30.921875 31.570312 42.179688 39.585938 55.902344 C 48.414062 71.007812 59.152344 79.160156 64.773438 79.160156 C 65.566406 79.160156 66.226562 79 66.796875 78.675781 C 67.796875 78.109375 68.515625 76.972656 68.972656 75.316406 C 70.65625 69.199219 68.425781 57.816406 60.40625 44.097656 C 51.578125 28.988281 40.839844 20.832031 35.222656 20.832031 Z M 35.222656 20.832031 "/>
<path style=" stroke:none;fill-rule:nonzero;fill:rgb(54.509807%,71.764708%,94.117647%);fill-opacity:1;" d="M 56.804688 50 C 56.804688 53.761719 53.761719 56.804688 50 56.804688 C 46.238281 56.804688 43.195312 53.761719 43.195312 50 C 43.195312 46.238281 46.238281 43.195312 50 43.195312 C 53.761719 43.195312 56.804688 46.238281 56.804688 50 Z M 56.804688 50 "/>
<path style=" stroke:none;fill-rule:nonzero;fill:rgb(30.588236%,47.843137%,70.980394%);fill-opacity:1;" d="M 50 57.777344 C 45.710938 57.777344 42.222656 54.289062 42.222656 50 C 42.222656 45.710938 45.710938 42.222656 50 42.222656 C 54.289062 42.222656 57.777344 45.710938 57.777344 50 C 57.777344 54.289062 54.289062 57.777344 50 57.777344 Z M 50 44.167969 C 46.785156 44.167969 44.167969 46.785156 44.167969 50 C 44.167969 53.214844 46.785156 55.832031 50 55.832031 C 53.214844 55.832031 55.832031 53.214844 55.832031 50 C 55.832031 46.785156 53.214844 44.167969 50 44.167969 Z M 50 44.167969 "/>
<path style=" stroke:none;fill-rule:nonzero;fill:rgb(54.509807%,71.764708%,94.117647%);fill-opacity:1;" d="M 50 65.6875 C 29.285156 65.6875 13.054688 58.796875 13.054688 50 C 13.054688 41.203125 29.285156 34.3125 50 34.3125 C 70.714844 34.3125 86.945312 41.203125 86.945312 50 C 86.945312 58.796875 70.714844 65.6875 50 65.6875 Z M 50 36.257812 C 31.027344 36.257812 15 42.550781 15 50 C 15 57.449219 31.027344 63.742188 50 63.742188 C 68.972656 63.742188 85 57.449219 85 50 C 85 42.550781 68.972656 36.257812 50 36.257812 Z M 50 36.257812 "/>
<path style=" stroke:none;fill-rule:nonzero;fill:rgb(54.509807%,71.764708%,94.117647%);fill-opacity:1;" d="M 35.226562 83.054688 C 35.222656 83.054688 35.226562 83.054688 35.226562 83.054688 C 33.757812 83.054688 32.429688 82.722656 31.273438 82.0625 C 29.335938 80.957031 27.988281 79.023438 27.261719 76.320312 C 25.160156 68.472656 28.679688 55.054688 36.226562 42.136719 C 44.902344 27.308594 56.640625 16.949219 64.777344 16.949219 C 66.242188 16.949219 67.570312 17.285156 68.726562 17.945312 C 70.660156 19.046875 72.007812 20.976562 72.734375 23.675781 C 74.835938 31.527344 71.316406 44.945312 63.765625 57.863281 C 55.097656 72.695312 43.363281 83.054688 35.226562 83.054688 Z M 64.777344 18.894531 C 57.417969 18.894531 46.117188 29.082031 37.910156 43.117188 C 30.726562 55.417969 27.203125 68.558594 29.144531 75.820312 C 29.730469 78.003906 30.769531 79.535156 32.238281 80.375 C 33.097656 80.863281 34.101562 81.109375 35.222656 81.109375 C 42.582031 81.109375 53.882812 70.921875 62.085938 56.882812 C 69.273438 44.582031 72.796875 31.4375 70.851562 24.179688 C 70.269531 22 69.230469 20.46875 67.761719 19.632812 C 66.902344 19.144531 65.898438 18.894531 64.777344 18.894531 Z M 64.777344 18.894531 "/>
<path style=" stroke:none;fill-rule:nonzero;fill:rgb(54.509807%,71.764708%,94.117647%);fill-opacity:1;" d="M 64.777344 83.050781 C 56.632812 83.046875 44.894531 72.691406 36.230469 57.863281 C 28.679688 44.945312 25.164062 31.527344 27.265625 23.679688 C 27.988281 20.976562 29.335938 19.042969 31.273438 17.9375 C 32.429688 17.277344 33.757812 16.945312 35.222656 16.945312 C 43.359375 16.945312 55.097656 27.304688 63.765625 42.136719 C 71.316406 55.050781 74.832031 68.46875 72.730469 76.324219 C 72.007812 79.023438 70.660156 80.953125 68.726562 82.054688 C 67.570312 82.714844 66.242188 83.050781 64.777344 83.050781 Z M 35.222656 18.890625 C 34.101562 18.890625 33.09375 19.136719 32.238281 19.625 C 30.765625 20.464844 29.726562 21.996094 29.140625 24.179688 C 27.199219 31.441406 30.722656 44.582031 37.90625 56.882812 C 46.109375 70.917969 57.414062 81.101562 64.777344 81.105469 C 65.898438 81.105469 66.90625 80.855469 67.761719 80.367188 C 69.230469 79.53125 70.269531 78 70.851562 75.820312 C 72.796875 68.558594 69.273438 55.414062 62.085938 43.117188 C 53.882812 29.078125 42.585938 18.890625 35.222656 18.890625 Z M 35.222656 18.890625 "/>
</g>
</svg>
