<?xml version="1.0" encoding="UTF-8"?>
<svg xmlns="http://www.w3.org/2000/svg" xmlns:xlink="http://www.w3.org/1999/xlink" viewBox="0 0 100 100" width="100px" height="100px">
<g id="surface132694363">
<path style=" stroke:none;fill-rule:nonzero;fill:rgb(9.803922%,46.27451%,82.352942%);fill-opacity:1;" d="M 5 100 C 2.238281 100 0 97.761719 0 95 L 0 5 C 0 2.238281 2.238281 0 5 0 L 95 0 C 97.761719 0 100 2.238281 100 5 L 100 95 C 100 97.761719 97.761719 100 95 100 Z M 5 100 "/>
<path style=" stroke:none;fill-rule:nonzero;fill:rgb(9.803922%,46.27451%,82.352942%);fill-opacity:1;" d="M 3.875 3.875 L 96.125 3.875 L 96.125 96.125 L 3.875 96.125 Z M 3.875 3.875 "/>
<path style=" stroke:none;fill-rule:nonzero;fill:rgb(100%,100%,100%);fill-opacity:1;" d="M 58.941406 44.875 L 24.957031 44.875 L 24.957031 53.238281 L 37.148438 53.238281 L 37.148438 91 L 46.804688 91 L 46.804688 53.238281 L 58.941406 53.238281 Z M 58.941406 44.875 "/>
<path style=" stroke:none;fill-rule:nonzero;fill:rgb(100%,100%,100%);fill-opacity:1;" d="M 88.933594 55.339844 C 88.933594 55.339844 84.355469 52.285156 79.179688 52.285156 C 74.003906 52.285156 72.140625 54.746094 72.140625 57.375 C 72.140625 64.160156 91.054688 63.480469 91.054688 77.136719 C 91.054688 98.171875 62.214844 88.84375 62.214844 88.84375 L 62.214844 78.75 C 62.214844 78.75 67.730469 82.90625 74.34375 82.90625 C 80.957031 82.90625 80.707031 78.582031 80.707031 77.988281 C 80.707031 71.710938 61.960938 71.710938 61.960938 57.800781 C 61.960938 38.886719 89.273438 46.347656 89.273438 46.347656 Z M 88.933594 55.339844 "/>
</g>
</svg>
